<svg version="1.1" id="Calque_1" xmlns="http://www.w3.org/2000/svg" xmlns:xlink="http://www.w3.org/1999/xlink" x="0px" y="0px"
	 width="600px" height="600px" viewBox="0 0 600 600" enable-background="new 0 0 600 600" xml:space="preserve">
	
<g>
	<path id="lettrea" fill="none" stroke="#ffffff" stroke-width="5" d="M133.471,432.351c-6.679,0-10.686-6.233-8.461-12.47L245.231,115.33
		c3.117-7.57,10.241-12.465,18.256-12.465h19.589c8.016,0,15.14,4.896,18.256,12.465L421.55,419.881
		c2.229,6.236-1.779,12.47-8.458,12.47h-28.496c-8.016,0-15.14-4.899-18.256-12.47l-25.38-66.341H205.157l-24.934,66.341
		c-3.116,7.57-10.24,12.47-18.256,12.47H133.471z M221.188,310.35H324.93l-52.094-136.245L221.188,310.35z"/>
</g>
	
</svg>